<?xml version="1.0" encoding="UTF-8"?>
<svg width="180px" height="94px" viewBox="0 0 180 94" version="1.1" xmlns="http://www.w3.org/2000/svg" xmlns:xlink="http://www.w3.org/1999/xlink">
    <!-- Generator: Sketch 52.5 (67469) - http://www.bohemiancoding.com/sketch -->
    <title>OlyveArtIcon</title>
    <desc>Created with Sketch.</desc>
    <g id="Page-1" stroke="none" stroke-width="1" fill="none" fill-rule="evenodd">
        <g id="Artboard" transform="translate(-132.000000, -157.000000)">
            <g id="OlyveArtIcon" transform="translate(132.000000, 157.000000)">
                <g id="Group-2">
                    <path d="M60.1860934,66.6592798 C66.1868063,59.8960853 71.825108,54.9889884 77.1009985,51.9379891 C83.6654763,48.6522466 92.3331429,46.4213863 97.1703642,44.9466021 C101.061543,43.7602496 105.129259,41.8502461 109.373511,39.2165915 C104.533142,44.5396593 100.632004,48.5396593 97.6700967,51.2165915 C94.7081896,53.8935238 89.4807144,57.5936177 81.9876711,62.3168734 C77.2298681,64.7724947 73.7800784,66.2199635 71.6383018,66.6592798 C69.4965252,67.0985961 65.6791224,67.0985961 60.1860934,66.6592798 Z" id="Path-10" stroke="#68956F" fill="#B9E7A6" transform="translate(84.779802, 53.102679) rotate(83.000000) translate(-84.779802, -53.102679) "></path>
                    <path d="" id="Path-5" stroke="#979797"></path>
                    <path d="M79.8010151,27.3864442 C88.5548057,23.9125281 93.926681,21.5157413 95.916641,20.1960836 C102.188965,16.0365426 106.908373,10.7844572 110.88971,8.35875262 C117.361005,4.4159943 123.460241,1.94396416 129.187417,0.942662201 C125.459437,5.24953738 122.382989,8.99357053 119.958074,12.1747617 C116.320702,16.9465484 110.162371,22.3414541 105.94673,24.3212772 C101.731089,26.3011004 94.7404662,28.1415049 91.4753531,28.4349141 C89.298611,28.6305203 85.407165,28.2810303 79.8010151,27.3864442 Z" id="Path-10" stroke="#68956F" fill="#B9E7A6"></path>
                    <path d="M130,34.4426882 C137.024387,28.9476789 142.351164,25.027818 145.980332,22.6831057 C151.424084,19.1660373 158.38494,18.2320995 163.024983,16.56755 C171.060742,13.6848355 176.44822,10.4956522 179.187417,7 C174.347048,12.3230678 170.44591,16.3230678 167.484003,19 C163.041143,23.0153983 156.014664,28.3231342 151.801578,30.1002819 C147.588491,31.8774295 144.627828,32.2746056 141.415163,32.93358 C139.273387,33.3728963 135.468332,33.8759324 130,34.4426882 Z" id="Path-10" stroke="#68956F" fill="#B9E7A6"></path>
                    <path d="M0.979638314,7.26048817 C0.979638314,8.75478015 9.50470379,17.3332856 58.5,27.5413485 C91.1635308,34.3467237 115.085452,36.598948 130.265765,34.2980214 C115.012718,34.8467361 91.0907963,31.0111966 58.5,22.791403 C9.6138056,10.4617125 14.2941013,6.92714664 13.2210549,6.58352592 C12.1480085,6.23990521 12.0752295,6.84979797 7.94648595,7.26048817 C3.81774242,7.67117837 0.979638314,5.76619618 0.979638314,7.26048817 Z" id="Path-6" stroke="#FFCA9B" fill="#FFD0A6"></path>
                    <path d="M44.393663,24.959056 C43.275092,24.2559143 40.688558,25.535858 42.1682698,27.5555841 C42.6981171,27.7586091 44.889327,28.9269366 51.0567811,34.1256541 C52.0385999,34.9532563 52.6823133,35.7563955 53.8466104,36.913203 C54.6452846,37.7067395 54.9853414,39.0967348 55.0869519,40.5803835 C55.2511176,42.9774239 56.8970651,42.6248306 60.0247943,39.5226038 C58.4444946,39.1936673 57.1631519,38.547586 56.1807664,37.5843602 C55.3303892,36.7505681 53.2487067,34.9480462 52.0385999,33.760144 C47.448031,29.6516491 45.512234,25.6621978 44.393663,24.959056 Z" id="Path-7" fill="#1E3722" transform="translate(50.873746, 33.456061) rotate(5.000000) translate(-50.873746, -33.456061) "></path>
                    <path d="M68.7535282,31.1242471 C70.272685,34.7790971 71.6637499,37.6042121 72.9267227,39.5995922 C74.1896956,41.5949722 76.1628372,44.4965744 78.8461474,48.3043989 L84.4887432,55.0885505" id="Path-15" stroke="#68956F" stroke-width="0.5"></path>
                    <ellipse id="Oval" stroke="#517B4E" fill="#5A9D59" transform="translate(67.862903, 66.170778) rotate(-24.000000) translate(-67.862903, -66.170778) " cx="67.8629035" cy="66.1707784" rx="20" ry="28.5"></ellipse>
                    <g id="Group" transform="translate(55.000000, 8.000000)" stroke="#68956F">
                        <path d="M-1.98951966e-13,13.1934832 C9.32011636,10.7133914 16.246495,8.55376161 20.7791358,6.71459388 C25.3117767,4.87542615 30.6338905,2.77348364 36.7454774,0.408766348 C42.5725212,-0.470603371 48.2867889,0.0688529203 53.8882802,2.02713522 C62.2905173,4.96455867 70.7405257,6.31541249 70.7405257,6.31541249 C70.7405257,6.31541249 65.2831148,10.0930622 52.5522263,10.2545051 C50.1427239,10.2850605 44.8738076,10.2850605 36.7454774,10.2545051 C26.1963811,11.084504 18.0181942,12.0641634 12.2109165,13.1934832 C6.40363884,14.3228029 2.33333333,14.3228029 -1.98951966e-13,13.1934832 Z" id="Path-8" fill="#B9E7A6"></path>
                        <path d="M1.61772544,13.3301192 C14.2833379,10.730633 25.9224779,8.43164806 36.5351453,6.43316447 C43.2745999,5.06161935 46.4660067,5.06161935 49.783207,5.65441951" id="Path-13" stroke-width="0.5"></path>
                    </g>
                    <path d="" id="Path-9" stroke="#979797"></path>
                    <path d="M63.4582319,42.3532615 C66.8598433,44.730118 69.6280248,46.9308014 71.7627763,48.9553118 C74.9649035,51.9920774 77.6469932,55.8061658 78.7335129,57.9547001 C79.8200327,60.1032344 80.8380682,60.8571137 82.9809223,67.0829967 C83.7233373,69.2400211 84.5091284,73.097154 85.3382957,78.6543954 C86.1495823,75.0766102 86.1495823,71.2194772 85.3382957,67.0829967 C84.1213657,60.8782758 82.373391,57.0865888 80.644646,54.637402 C78.9159009,52.1882152 75.1733874,47.3873299 71.7627763,45.469274 C69.4890355,44.19057 66.720854,43.1518992 63.4582319,42.3532615 Z" id="Path-11" stroke="#A8DAA1" fill="#E2F7DF"></path>
                    <path d="M131.393533,33.8251294 C140.680289,31.2437876 147.677448,28.7729473 152.385011,26.4126085 C157.092574,24.0522697 161.047668,21.6454405 164.250292,19.1921209" id="Path-12" stroke="#68956F" stroke-width="0.5"></path>
                    <path d="M82.6911319,27.3391423 C89.7907952,25.9227307 94.7278827,24.6405336 97.5023945,23.4925511 C100.276906,22.3445686 103.060595,20.6961706 105.85346,18.547357" id="Path-14" stroke="#68956F" stroke-width="0.5"></path>
                </g>
            </g>
        </g>
    </g>
</svg>