<?xml version="1.0" standalone="no"?>
<!DOCTYPE svg PUBLIC "-//W3C//DTD SVG 20010904//EN"
 "http://www.w3.org/TR/2001/REC-SVG-20010904/DTD/svg10.dtd">
<svg version="1.0" xmlns="http://www.w3.org/2000/svg"
 width="1440.000000pt" height="1440.000000pt" viewBox="0 0 1440.000000 1440.000000"
 preserveAspectRatio="xMidYMid meet">
<metadata>
Created by potrace 1.11, written by Peter Selinger 2001-2013
</metadata>
<g transform="translate(0.000000,1440.000000) scale(0.100000,-0.100000)"
fill="#000000" stroke="none">
<path d="M10375 10934 c-33 -8 -76 -16 -95 -19 -108 -18 -516 -133 -545 -155
-5 -4 -47 -20 -92 -35 -46 -16 -83 -31 -83 -35 0 -4 -6 -7 -12 -7 -27 -1 -519
-242 -538 -264 -3 -3 -30 -19 -60 -35 -30 -16 -59 -32 -65 -37 -5 -4 -46 -31
-90 -60 -44 -28 -86 -58 -93 -65 -15 -13 -39 -11 -87 8 -40 16 -288 77 -345
85 -25 3 -56 8 -70 11 -30 5 -84 12 -165 21 -193 22 -632 2 -735 -32 -14 -5
-47 -18 -65 -26 -11 -4 -74 -29 -140 -54 -66 -25 -129 -50 -140 -55 -11 -5
-49 -20 -85 -33 -138 -52 -406 -158 -435 -172 -41 -19 -299 -120 -317 -124 -4
-1 -34 -14 -65 -28 -32 -14 -69 -29 -83 -34 -14 -4 -60 -21 -102 -37 -43 -17
-78 -28 -78 -25 0 3 -6 1 -12 -4 -11 -8 -109 -45 -128 -48 -3 0 -79 -25 -170
-54 -220 -71 -288 -92 -303 -95 -18 -4 -130 -37 -147 -43 -18 -8 -15 -6 -70
-22 -25 -7 -52 -14 -60 -16 -8 -2 -27 -8 -42 -14 -16 -6 -28 -9 -28 -6 0 2
-19 -3 -42 -11 -24 -9 -52 -17 -63 -19 -11 -2 -60 -15 -110 -30 -95 -27 -114
-33 -143 -39 -10 -2 -43 -12 -73 -21 -82 -25 -109 -26 -174 -9 -63 16 -84 21
-113 28 -9 2 -37 10 -62 17 -59 16 -62 17 -85 22 -11 3 -87 24 -170 47 -82 23
-157 43 -166 45 -9 2 -34 8 -55 15 -46 13 -145 41 -159 44 -5 1 -28 8 -50 14
-115 34 -335 97 -370 106 -5 2 -17 6 -25 9 -14 6 -99 29 -110 30 -3 0 -18 6
-35 13 -16 7 -33 13 -37 13 -4 1 -13 3 -20 6 -21 7 -162 48 -173 51 -37 8
-631 211 -690 235 -16 7 -33 13 -37 14 -5 2 -10 4 -13 5 -3 1 -8 3 -12 5 -5 1
-20 7 -35 13 -16 6 -78 32 -139 57 -60 25 -123 52 -139 60 -17 9 -32 15 -35
15 -11 0 -185 96 -247 137 -66 43 -138 115 -138 138 0 15 -53 45 -82 46 -27 0
-89 -9 -138 -21 -180 -46 -432 -56 -575 -23 -11 2 -27 6 -35 8 -8 2 -40 7 -70
11 -104 15 -148 3 -166 -45 -22 -57 44 -151 171 -246 72 -54 134 -95 144 -95
5 0 11 -4 13 -8 7 -17 259 -149 473 -247 79 -36 281 -120 385 -159 52 -19 109
-41 125 -47 17 -7 33 -13 38 -14 4 -2 9 -4 12 -5 3 -1 8 -3 13 -5 4 -1 15 -5
24 -9 9 -4 22 -8 30 -10 7 -1 18 -4 23 -7 6 -4 42 -16 80 -28 39 -13 79 -26
90 -31 26 -12 299 -100 435 -140 58 -17 112 -34 120 -37 19 -8 16 -7 70 -22
161 -44 197 -54 210 -59 8 -3 20 -6 25 -7 6 0 15 -3 20 -6 6 -4 28 -10 50 -14
22 -4 44 -10 50 -13 5 -4 15 -7 20 -8 6 -1 37 -9 70 -18 33 -9 71 -19 85 -22
14 -2 41 -10 60 -16 19 -7 39 -11 43 -10 4 1 16 -2 25 -7 9 -5 34 -12 56 -15
21 -4 43 -9 49 -13 5 -3 20 -7 31 -9 12 -2 39 -8 61 -14 22 -6 58 -16 80 -21
22 -6 47 -12 55 -15 93 -24 131 -32 150 -33 9 -1 11 -4 5 -9 -22 -15 -45 -63
-45 -91 0 -50 21 -80 89 -128 36 -26 71 -52 77 -58 6 -5 33 -28 60 -50 127
-103 494 -458 494 -477 0 -5 4 -7 9 -3 5 3 12 -3 15 -12 3 -10 21 -34 39 -53
70 -74 146 -184 158 -229 18 -69 19 -72 22 -122 l2 -47 -83 -61 c-120 -89
-238 -211 -302 -312 -19 -30 -37 -56 -40 -59 -16 -16 -122 -228 -136 -275 -2
-5 -17 -50 -33 -99 -17 -48 -33 -100 -35 -115 -3 -14 -8 -39 -12 -56 -3 -16
-8 -37 -11 -45 -7 -18 -8 -26 -17 -110 -4 -35 -9 -67 -11 -70 -6 -9 -18 -227
-17 -305 2 -128 14 -297 27 -365 2 -14 6 -41 9 -60 3 -19 13 -71 22 -115 9
-44 17 -87 18 -95 16 -92 122 -411 183 -550 192 -433 460 -808 770 -1077 31
-26 63 -55 72 -63 43 -37 101 -80 110 -80 5 0 11 -4 13 -8 4 -12 125 -92 137
-92 6 0 11 -3 11 -7 0 -5 10 -13 23 -19 12 -6 64 -32 114 -58 51 -26 95 -47
98 -47 2 0 26 -9 52 -20 74 -32 201 -71 268 -83 17 -3 41 -8 55 -11 132 -28
339 -26 492 6 187 38 420 153 535 263 12 12 45 44 74 71 46 44 189 225 189
239 0 3 18 35 40 71 22 36 40 70 40 75 0 6 4 18 10 28 5 9 16 34 25 55 8 20
22 52 29 70 8 18 31 93 50 167 31 119 41 168 51 245 1 11 3 20 5 20 2 0 8 77
14 187 3 48 7 92 11 98 3 5 2 10 -3 10 -6 0 -7 14 -2 34 4 19 6 37 3 40 -3 2
-6 44 -8 93 -3 83 -8 143 -21 238 -3 22 -7 50 -8 63 -4 29 5 28 40 -5 16 -16
47 -41 69 -57 22 -17 42 -32 45 -35 3 -4 32 -26 65 -51 33 -25 62 -47 65 -51
11 -12 171 -129 177 -129 3 0 16 -10 27 -22 12 -13 30 -27 39 -33 9 -5 84 -59
168 -120 83 -60 171 -124 196 -141 l45 -31 24 24 c30 30 30 33 -1 69 -14 16
-25 32 -25 36 0 4 -6 13 -13 20 -7 7 -36 45 -65 83 -28 39 -55 75 -59 80 -39
51 -73 105 -73 114 0 6 -4 11 -8 11 -5 0 -26 30 -48 66 -21 36 -48 80 -58 97
-11 18 -30 50 -42 72 -27 47 -164 322 -164 329 0 3 -13 35 -30 71 -16 36 -30
67 -30 70 0 2 -14 35 -31 72 -17 37 -35 77 -40 88 -4 11 -24 55 -44 98 -19 43
-35 80 -35 81 0 2 -14 34 -32 72 -17 38 -32 71 -32 74 -2 11 -85 183 -163 335
-111 220 -126 247 -140 262 -6 7 -15 23 -18 34 -4 11 -20 40 -36 64 -16 24
-29 48 -29 54 0 6 -4 11 -8 11 -5 0 -19 19 -31 43 -12 24 -32 55 -44 69 -12
15 -30 36 -39 47 -10 12 -18 25 -18 30 0 5 -3 11 -7 13 -5 2 -37 37 -73 78
-106 123 -224 244 -385 395 -52 49 -319 273 -370 312 -17 12 -41 31 -55 42
-32 26 -241 181 -270 201 -12 8 -31 23 -42 33 -12 9 -27 17 -35 17 -7 0 -13 4
-13 9 0 4 10 7 23 5 27 -4 123 -21 157 -29 14 -3 39 -7 55 -10 17 -2 57 -9 90
-15 33 -6 74 -13 90 -16 17 -2 50 -9 75 -14 25 -6 63 -13 85 -16 53 -7 69 -9
140 -23 33 -6 76 -13 95 -16 19 -2 46 -7 60 -9 29 -7 94 -17 135 -22 17 -2 41
-6 55 -9 14 -3 45 -8 70 -11 25 -3 56 -7 70 -10 27 -5 58 -10 123 -19 23 -3
53 -8 67 -10 14 -2 45 -7 70 -10 25 -3 56 -8 70 -10 14 -2 48 -7 75 -10 62 -8
111 -15 150 -21 17 -3 55 -7 85 -10 30 -3 70 -9 88 -14 19 -5 30 -5 27 1 -4 5
3 5 18 0 13 -5 52 -12 88 -16 35 -3 78 -8 94 -10 17 -2 58 -6 91 -9 34 -3 74
-7 90 -10 16 -3 61 -7 99 -11 39 -3 88 -8 110 -11 22 -2 69 -7 105 -10 75 -5
152 -11 230 -18 113 -9 297 -20 357 -20 35 -1 63 -3 63 -6 0 -16 1001 -13
1016 3 3 3 20 1 39 -3 19 -4 37 -5 40 -2 4 4 23 8 43 9 61 4 143 11 212 18 36
3 94 8 130 10 36 2 88 7 115 10 28 3 66 8 85 10 19 2 59 7 88 10 30 4 72 8 95
10 45 4 111 12 167 21 37 5 106 14 155 18 17 2 41 6 55 9 14 4 45 9 70 12 25
3 56 7 70 10 14 3 41 8 60 10 19 3 132 25 250 50 118 25 228 48 243 50 15 3
35 9 45 14 9 5 19 9 22 9 3 -1 46 12 95 27 50 16 93 28 98 27 4 -1 7 2 7 6 0
5 6 9 13 9 20 1 220 89 276 122 29 17 56 31 61 31 6 0 10 3 10 8 0 4 20 16 45
27 24 10 47 25 49 32 3 7 10 13 16 13 15 0 160 98 350 235 15 11 40 29 56 40
16 11 31 22 34 25 3 3 48 39 100 80 82 64 149 118 250 203 205 173 533 495
860 846 58 62 126 135 153 161 26 27 47 54 47 59 0 6 5 11 10 11 17 0 11 18
-12 40 -33 30 -26 35 -133 -81 -56 -60 -138 -129 -153 -129 -5 0 -12 -7 -16
-15 -3 -8 -12 -15 -21 -15 -8 0 -15 -4 -15 -10 0 -5 -15 -17 -32 -26 -18 -9
-35 -20 -38 -24 -3 -4 -27 -20 -55 -35 -27 -16 -52 -32 -55 -35 -16 -17 -339
-178 -453 -225 -48 -19 -100 -41 -115 -47 -15 -6 -29 -12 -32 -13 -3 -1 -18
-7 -35 -14 -16 -6 -50 -19 -75 -27 -25 -9 -54 -20 -65 -25 -23 -10 -173 -58
-195 -63 -8 -2 -22 -6 -30 -9 -15 -6 -97 -29 -115 -32 -5 -1 -12 -3 -15 -4 -3
-2 -12 -4 -20 -6 -8 -1 -35 -9 -60 -16 -25 -7 -49 -14 -55 -15 -5 0 -17 -3
-25 -6 -17 -7 -183 -52 -190 -53 -3 0 -18 -5 -35 -12 -16 -6 -57 -19 -90 -29
-33 -9 -64 -20 -70 -24 -5 -4 -28 -13 -50 -20 -91 -29 -264 -108 -375 -173
-83 -48 -430 -284 -450 -307 -3 -3 -12 -9 -21 -15 -26 -15 -183 -128 -189
-135 -3 -3 -93 -72 -200 -153 -290 -218 -355 -268 -358 -278 -2 -5 -8 -9 -13
-9 -6 0 -22 -11 -37 -25 -14 -13 -38 -29 -52 -33 -41 -15 -624 -5 -830 14 -30
2 -91 7 -135 9 -44 3 -100 8 -125 10 -25 3 -72 7 -105 11 -113 10 -150 14
-190 19 -22 2 -62 7 -90 10 -46 5 -99 11 -165 20 -14 1 -47 6 -75 10 -27 4
-61 9 -75 10 -73 9 -138 17 -160 22 -14 2 -36 6 -50 7 -32 4 -119 17 -145 23
-11 2 -33 6 -50 7 -46 5 -114 16 -170 26 -27 6 -63 12 -80 14 -37 6 -82 13
-165 28 -92 15 -87 14 -180 31 -47 9 -98 18 -115 21 -16 3 -43 8 -60 11 -39 9
-59 12 -122 21 -29 4 -53 10 -53 13 0 4 -8 7 -17 8 -22 1 -98 11 -98 13 0 1
-13 4 -30 6 -89 14 -71 19 72 20 154 1 232 7 303 24 19 5 53 11 75 15 22 3 64
12 93 19 28 8 52 12 52 10 0 -3 8 0 18 5 11 6 30 12 43 15 37 7 182 46 199 53
8 3 20 7 27 9 105 22 440 152 573 223 60 31 238 146 250 160 3 4 30 24 60 46
30 22 60 44 66 50 6 5 29 25 52 43 57 46 77 64 150 130 35 31 68 58 73 58 5 1
10 2 12 3 1 2 13 4 27 6 102 15 131 20 195 36 22 6 49 11 60 13 11 2 20 4 20
5 0 2 7 4 15 6 8 2 25 6 38 9 12 3 31 8 42 10 11 3 24 7 28 10 5 3 19 7 33 10
98 20 429 173 429 198 0 5 4 7 8 4 10 -6 39 11 31 18 -2 3 -20 8 -39 11 -19 3
-73 13 -120 21 -47 9 -94 18 -105 20 -11 2 -40 8 -65 14 -25 5 -57 12 -72 15
-55 10 -84 16 -110 21 -28 6 -36 18 -19 28 5 3 41 48 80 100 39 52 77 101 84
108 7 7 19 22 27 34 8 11 31 41 52 65 115 139 157 189 188 229 19 24 48 57 63
73 15 17 38 44 50 60 12 16 37 44 55 63 17 19 32 37 32 40 0 3 10 15 23 28 19
20 40 45 122 140 20 22 37 46 34 45 -2 -1 -31 -8 -64 -15z m-2620 -1482 c-27
-23 -88 -64 -136 -93 -106 -63 -137 -78 -143 -72 -3 4 -6 1 -6 -5 0 -7 -4 -12
-9 -12 -5 0 -67 -27 -138 -61 -70 -34 -166 -77 -213 -96 -77 -32 -117 -49
-205 -89 -47 -21 -355 -145 -400 -161 -22 -8 -44 -18 -50 -23 -23 -18 -145
-52 -162 -45 -18 8 -34 12 -85 19 -15 2 -30 6 -35 9 -4 3 -24 8 -43 11 -19 3
-82 16 -140 30 -58 14 -116 27 -130 29 -14 3 -52 12 -85 20 -33 9 -71 18 -85
20 -36 7 -262 61 -305 73 -17 5 -58 14 -95 20 -19 4 -39 9 -45 13 -5 3 -21 7
-35 9 -14 1 -38 7 -55 12 -16 5 -41 12 -55 14 -14 3 -52 12 -85 21 -33 8 -69
17 -80 19 -11 2 -27 7 -35 10 -8 3 -28 8 -44 10 -58 10 -53 26 10 27 32 1 73
2 89 4 53 4 163 16 187 20 40 6 102 16 128 20 29 4 75 13 110 20 14 3 41 7 60
10 19 2 35 4 35 5 0 1 9 3 20 5 11 2 35 7 53 10 17 3 47 8 65 10 17 3 43 7 57
10 14 3 43 8 65 10 22 3 51 7 65 10 14 3 45 7 70 10 55 6 98 12 170 22 30 4
63 8 73 9 9 1 18 3 20 4 1 1 18 3 37 5 31 2 65 6 175 20 17 2 57 6 90 9 99 10
169 17 195 22 14 2 55 6 90 9 36 3 85 7 110 10 64 6 167 15 225 20 147 11 200
17 203 19 2 2 116 4 254 5 139 0 248 -3 243 -7z m-4015 -527 c3 -2 17 -6 31
-9 36 -7 55 -12 154 -36 50 -12 101 -23 115 -25 14 -2 25 -5 25 -6 0 -1 9 -3
20 -4 11 -2 72 -15 135 -29 63 -15 129 -29 145 -32 17 -2 38 -7 47 -10 16 -5
35 -9 88 -19 27 -5 30 -6 135 -30 39 -9 86 -18 105 -21 19 -3 51 -9 70 -14 19
-5 50 -12 68 -15 18 -3 65 -12 105 -21 39 -8 117 -24 172 -34 55 -11 111 -22
125 -25 14 -2 49 -9 79 -15 30 -5 56 -12 59 -15 5 -5 6 -15 17 -180 12 -193
22 -330 25 -330 1 0 3 -20 5 -45 4 -74 22 -187 31 -202 8 -12 -3 -10 -81 12
-113 33 -189 50 -245 54 -14 1 -30 4 -35 7 -12 7 -273 4 -335 -4 -25 -4 -79
-15 -120 -26 -94 -24 -92 -24 -111 -22 -18 1 -82 63 -199 192 -47 51 -106 116
-131 144 -66 71 -190 213 -232 265 -12 14 -88 119 -115 157 -48 69 -122 186
-122 194 0 5 -3 9 -7 9 -5 0 -13 10 -19 23 -22 44 -49 91 -61 105 -7 7 -13 15
-13 18 0 5 59 -4 70 -11z"/>
</g>
</svg>
